<?xml version="1.0" encoding="UTF-8" standalone="no"?>
<!-- Created with Inkscape (http://www.inkscape.org/) -->

<svg
   xmlns:dc="http://purl.org/dc/elements/1.1/"
   xmlns:cc="http://creativecommons.org/ns#"
   xmlns:rdf="http://www.w3.org/1999/02/22-rdf-syntax-ns#"
   xmlns:svg="http://www.w3.org/2000/svg"
   xmlns="http://www.w3.org/2000/svg"
   xmlns:sodipodi="http://sodipodi.sourceforge.net/DTD/sodipodi-0.dtd"
   xmlns:inkscape="http://www.inkscape.org/namespaces/inkscape"
   width="16"
   height="16"
   id="svg2"
   version="1.1"
   inkscape:version="0.48.4 r9939"
   sodipodi:docname="calendar-arrow-left.svg">
  <defs
     id="defs4" />
  <sodipodi:namedview
     id="base"
     pagecolor="#ffffff"
     bordercolor="#666666"
     borderopacity="1.0"
     inkscape:pageopacity="0.0"
     inkscape:pageshadow="2"
     inkscape:zoom="11.313708"
     inkscape:cx="-4.3872641"
     inkscape:cy="10.41872"
     inkscape:document-units="px"
     inkscape:current-layer="layer1"
     showgrid="false"
     borderlayer="true"
     inkscape:showpageshadow="false"
     inkscape:window-width="930"
     inkscape:window-height="681"
     inkscape:window-x="434"
     inkscape:window-y="45"
     inkscape:window-maximized="0">
    <inkscape:grid
       type="xygrid"
       id="grid17403"
       empspacing="5"
       visible="true"
       enabled="true"
       snapvisiblegridlinesonly="true" />
  </sodipodi:namedview>
  <metadata
     id="metadata7">
    <rdf:RDF>
      <cc:Work
         rdf:about="">
        <dc:format>image/svg+xml</dc:format>
        <dc:type
           rdf:resource="http://purl.org/dc/dcmitype/StillImage" />
        <dc:title />
      </cc:Work>
    </rdf:RDF>
  </metadata>
  <g
     inkscape:label="Layer 1"
     inkscape:groupmode="layer"
     id="layer1"
     transform="translate(0,-1036.3622)">
    <g
       id="g3034">
      <rect
         transform="scale(-1,1)"
         style="color:#bebebe;fill:none;stroke:none;stroke-width:1;marker:none;visibility:visible;display:inline;overflow:visible;enable-background:new"
         id="rect10837-5-8-1"
         y="1036.3622"
         x="-15.999998"
         height="16"
         width="16" />
      <path
         id="path3021"
         transform="translate(0,1036.3622)"
         d="M 10 1 C 9.6746092 1 9.4013649 1.1656048 9.21875 1.40625 L 9.1875 1.40625 L 5.1875 7.40625 L 4.78125 8 L 5.1875 8.59375 L 9.1875 14.59375 L 9.21875 14.59375 C 9.4013649 14.834395 9.6746092 15 10 15 L 11 15 L 11 14 C 11 13.7731 10.908587 13.574051 10.78125 13.40625 L 10.8125 13.40625 L 10.71875 13.28125 L 7.25 8 L 10.71875 2.71875 L 10.8125 2.59375 L 10.78125 2.59375 C 10.908587 2.4259487 11 2.2269003 11 2 L 11 1 L 10 1 z "
         style="fill:#ffffff;fill-opacity:1;stroke:none;opacity:0.5" />
    </g>
  </g>
</svg>
