<?xml version="1.0" encoding="UTF-8" standalone="no"?>
<!-- Generator: Adobe Illustrator 13.0.2, SVG Export Plug-In . SVG Version: 6.00 Build 14948)  -->

<svg
   xmlns:dc="http://purl.org/dc/elements/1.1/"
   xmlns:cc="http://creativecommons.org/ns#"
   xmlns:rdf="http://www.w3.org/1999/02/22-rdf-syntax-ns#"
   xmlns:svg="http://www.w3.org/2000/svg"
   xmlns="http://www.w3.org/2000/svg"
   xmlns:xlink="http://www.w3.org/1999/xlink"
   xmlns:sodipodi="http://sodipodi.sourceforge.net/DTD/sodipodi-0.dtd"
   xmlns:inkscape="http://www.inkscape.org/namespaces/inkscape"
   version="1.0"
   id="Foreground"
   x="0px"
   y="0px"
   width="24"
   height="24"
   viewBox="0 0 17.454545 17.454545"
   enable-background="new 0 0 16 16"
   xml:space="preserve"
   sodipodi:version="0.32"
   inkscape:version="0.48.4 r9939"
   sodipodi:docname="close-window.svg"
   inkscape:output_extension="org.inkscape.output.svg.inkscape"><metadata
     id="metadata2399"><rdf:RDF><cc:Work
         rdf:about=""><dc:format>image/svg+xml</dc:format><dc:type
           rdf:resource="http://purl.org/dc/dcmitype/StillImage" /><dc:title /></cc:Work></rdf:RDF></metadata><defs
     id="defs2397"><linearGradient
       id="linearGradient3940"><stop
         id="stop3942"
         offset="0"
         style="stop-color:#f6f6f6;stop-opacity:1" /><stop
         id="stop3944"
         offset="1"
         style="stop-color:#ffffff;stop-opacity:1;" /></linearGradient><linearGradient
       id="linearGradient3839"><stop
         style="stop-color:#2e2e2e;stop-opacity:1;"
         offset="0"
         id="stop3841" /><stop
         style="stop-color:#565656;stop-opacity:1;"
         offset="1"
         id="stop3843" /></linearGradient><linearGradient
       id="linearGradient3173"><stop
         style="stop-color:#ececec;stop-opacity:1"
         offset="0"
         id="stop3175" /><stop
         style="stop-color:#ffffff;stop-opacity:1;"
         offset="1"
         id="stop3177" /></linearGradient><inkscape:perspective
       sodipodi:type="inkscape:persp3d"
       inkscape:vp_x="0 : 8 : 1"
       inkscape:vp_y="0 : 1000 : 0"
       inkscape:vp_z="16 : 8 : 1"
       inkscape:persp3d-origin="8 : 5.3333333 : 1"
       id="perspective2401" /><clipPath
       clipPathUnits="userSpaceOnUse"
       id="clipPath3811"><path
         id="path3813"
         d="M 16,4 C 9.3725829,4 4,9.3725831 4,16 4,22.627417 9.3725829,28 16,28 22.627417,28 28,22.627417 28,16 28,9.3725831 22.627417,4 16,4 z m -4,8 1,0 c 0.276141,0 0.537786,0.100278 0.71875,0.28125 L 16,14.5625 18.28125,12.28125 C 18.462214,12.100279 18.723857,12 19,12 l 1,0 0,1 c 0.03655,0.27371 -0.100292,0.537781 -0.28125,0.71875 L 17.4375,16 19.71875,18.28125 C 19.899714,18.462221 20,18.72386 20,19 l 0,1 -1,0 c -0.276143,0 -0.537786,-0.100279 -0.71875,-0.28125 L 16,17.4375 13.71875,19.71875 C 13.537786,19.899719 13.276141,20 13,20 l -1,0 0,-1 c 0,-0.27614 0.100279,-0.537779 0.28125,-0.71875 L 14.5625,16 12.28125,13.71875 C 12.100286,13.537781 12,13.27614 12,13 l 0,-1 z"
         style="color:#000000;fill:#a348b1;fill-opacity:1;stroke:none;stroke-width:2;marker:none;visibility:visible;display:inline;overflow:visible;enable-background:new"
         inkscape:connector-curvature="0" /></clipPath><linearGradient
       inkscape:collect="always"
       xlink:href="#linearGradient3173"
       id="linearGradient3876"
       x1="4"
       y1="16"
       x2="28"
       y2="16"
       gradientUnits="userSpaceOnUse" /><clipPath
       clipPathUnits="userSpaceOnUse"
       id="clipPath3782"><path
         sodipodi:nodetypes="sssss"
         inkscape:connector-curvature="0"
         id="path3784"
         d="m 0,8.7272733 c 0,4.8199397 3.9073336,8.7272717 8.7272734,8.7272717 4.8199406,0 8.7272716,-3.907332 8.7272716,-8.7272717 C 17.454545,3.9073352 13.547214,7e-7 8.7272734,7e-7 3.9073336,7e-7 0,3.9073352 0,8.7272733 z"
         style="opacity:0.8;color:#000000;fill:#000000;fill-opacity:1;fill-rule:nonzero;stroke:none;stroke-width:2;marker:none;visibility:visible;display:inline;overflow:visible;enable-background:new" /></clipPath></defs><sodipodi:namedview
     inkscape:window-height="699"
     inkscape:window-width="1364"
     inkscape:pageshadow="2"
     inkscape:pageopacity="0"
     guidetolerance="10.0"
     gridtolerance="10.0"
     objecttolerance="10.0"
     borderopacity="1.0"
     bordercolor="#666666"
     pagecolor="#000000"
     id="base"
     showgrid="false"
     inkscape:zoom="11.313708"
     inkscape:cx="4.5764215"
     inkscape:cy="11.696541"
     inkscape:window-x="0"
     inkscape:window-y="27"
     inkscape:current-layer="Foreground"
     showguides="true"
     inkscape:guide-bbox="true"
     borderlayer="true"
     inkscape:showpageshadow="false"
     inkscape:window-maximized="0"
     inkscape:snap-bbox="true"
     inkscape:bbox-nodes="true"
     inkscape:bbox-paths="true"
     inkscape:snap-bbox-edge-midpoints="true"
     inkscape:snap-bbox-midpoints="true"><inkscape:grid
       type="xygrid"
       id="grid11246"
       empspacing="5"
       visible="true"
       enabled="true"
       snapvisiblegridlinesonly="true" /></sodipodi:namedview><path
     style="opacity:0.8;color:#000000;fill:#000000;fill-opacity:1;fill-rule:nonzero;stroke:none;stroke-width:2;marker:none;visibility:visible;display:inline;overflow:visible;enable-background:new"
     d="m 0.7272725,8.7272728 c 0,4.4182782 3.5817225,7.9999992 8.0000006,7.9999992 4.4182789,0 7.9999989,-3.581721 7.9999989,-7.9999992 0,-4.4182766 -3.58172,-7.99999975 -7.9999989,-7.99999975 -4.4182781,0 -8.0000006,3.58172315 -8.0000006,7.99999975 z"
     id="path5757"
     inkscape:connector-curvature="0"
     sodipodi:nodetypes="sssss" /><path
     style="color:#000000;fill:#ffffff;fill-opacity:1;fill-rule:nonzero;stroke:none;stroke-width:2;marker:none;visibility:visible;display:inline;overflow:visible;enable-background:new"
     d="m 5.8181819,11.638523 0.7272725,0 c 0.200829,0 0.391114,-0.07293 0.522727,-0.204545 l 1.659092,-1.6590907 1.6590896,1.6590907 c 0.131616,0.13161 0.321899,0.204545 0.522728,0.204545 l 0.727272,0 0,-0.727272 c 0,-0.200831 -0.07293,-0.391117 -0.204545,-0.522728 L 9.7727274,8.7294333 11.431818,7.0703421 c 0.131614,-0.13161 0.204545,-0.321897 0.204545,-0.522727 l 0,-0.7272726 -0.727272,0 c -0.200829,0 -0.391112,0.07293 -0.522728,0.2045455 L 8.7272734,7.683979 7.0681814,6.024888 C 6.9365684,5.8932778 6.7445164,5.7937593 6.5454544,5.8203425 l -0.7272725,0 0,0.7272726 c 0,0.20083 0.07293,0.391117 0.2045455,0.522727 l 1.659091,1.6590912 -1.659091,1.6590897 C 5.8911121,10.520134 5.8181819,10.71042 5.8181819,10.911251 z"
     id="path3918"
     inkscape:connector-curvature="0"
     sodipodi:nodetypes="cssccscscccscsscsccscccsc" /><g
     transform="translate(-3.6363636,-1.4545447)"
     id="g3770"
     style="fill:none"><path
       style="opacity:0.80000000000000004;color:#000000;fill:none;fill-opacity:1;fill-rule:nonzero;stroke:none;stroke-width:2;marker:none;visibility:visible;display:inline;overflow:visible;enable-background:new"
       d="m 3.6363636,10.181818 c 0,4.81994 3.9073336,8.727272 8.7272734,8.727272 4.819941,0 8.727272,-3.907332 8.727272,-8.727272 0,-4.8199381 -3.907331,-8.7272726 -8.727272,-8.7272726 -4.8199398,0 -8.7272734,3.9073345 -8.7272734,8.7272726 z"
       id="path3772"
       inkscape:connector-curvature="0"
       sodipodi:nodetypes="sssss" /><path
       style="color:#000000;fill:none;fill-opacity:1;fill-rule:nonzero;stroke:none;stroke-width:2;marker:none;visibility:visible;display:inline;overflow:visible;enable-background:new"
       d="m 9.4545455,13.093068 0.7272725,0 c 0.200829,0 0.391114,-0.07293 0.522727,-0.204545 l 1.659092,-1.659091 1.65909,1.659091 c 0.131616,0.13161 0.321899,0.204545 0.522728,0.204545 l 0.727272,0 0,-0.727272 c 0,-0.200831 -0.07293,-0.391117 -0.204545,-0.522728 l -1.659091,-1.65909 1.659091,-1.6590912 c 0.131614,-0.13161 0.204545,-0.321897 0.204545,-0.522727 l 0,-0.7272726 -0.727272,0 c -0.200829,0 -0.391112,0.07293 -0.522728,0.2045455 l -1.65909,1.659091 -1.659092,-1.659091 C 10.572932,7.3478225 10.38088,7.248304 10.181818,7.2748872 l -0.7272725,0 0,0.7272726 c 0,0.20083 0.07293,0.391117 0.2045455,0.522727 l 1.659091,1.6590912 -1.659091,1.65909 c -0.1316153,0.131611 -0.2045455,0.321897 -0.2045455,0.522728 z"
       id="path3774"
       inkscape:connector-curvature="0"
       sodipodi:nodetypes="cssccscscccscsscsccscccsc" /></g><path
     sodipodi:nodetypes="sssss"
     inkscape:connector-curvature="0"
     id="path3778"
     d="m 0,8.7272733 c 0,4.8199397 3.9073336,8.7272717 8.7272734,8.7272717 4.8199406,0 8.7272716,-3.907332 8.7272716,-8.7272717 C 17.454545,3.9073352 13.547214,7e-7 8.7272734,7e-7 3.9073336,7e-7 0,3.9073352 0,8.7272733 z"
     style="opacity:1;color:#000000;fill:none;fill-opacity:1;fill-rule:nonzero;stroke:#ffffff;stroke-width:2.90909082999999979;marker:none;visibility:visible;display:inline;overflow:visible;enable-background:new;stroke-opacity:1;stroke-miterlimit:4;stroke-dasharray:none"
     clip-path="url(#clipPath3782)" /></svg>