<?xml version="1.0" encoding="UTF-8" standalone="no"?>
<!-- Generator: Adobe Illustrator 13.0.2, SVG Export Plug-In . SVG Version: 6.00 Build 14948)  -->

<svg
   xmlns:dc="http://purl.org/dc/elements/1.1/"
   xmlns:cc="http://creativecommons.org/ns#"
   xmlns:rdf="http://www.w3.org/1999/02/22-rdf-syntax-ns#"
   xmlns:svg="http://www.w3.org/2000/svg"
   xmlns="http://www.w3.org/2000/svg"
   xmlns:xlink="http://www.w3.org/1999/xlink"
   xmlns:sodipodi="http://sodipodi.sourceforge.net/DTD/sodipodi-0.dtd"
   xmlns:inkscape="http://www.inkscape.org/namespaces/inkscape"
   version="1.1"
   id="Foreground"
   x="0px"
   y="0px"
   width="16px"
   height="16px"
   viewBox="0 0 16 16"
   enable-background="new 0 0 16 16"
   xml:space="preserve"
   sodipodi:version="0.32"
   inkscape:version="0.48.4 r9939"
   sodipodi:docname="close.svg"
   inkscape:output_extension="org.inkscape.output.svg.inkscape"><metadata
     id="metadata2399"><rdf:RDF><cc:Work
         rdf:about=""><dc:format>image/svg+xml</dc:format><dc:type
           rdf:resource="http://purl.org/dc/dcmitype/StillImage" /></cc:Work></rdf:RDF></metadata><defs
     id="defs2397"><linearGradient
       id="linearGradient3173"><stop
         style="stop-color:#c4c4c4;stop-opacity:1;"
         offset="0"
         id="stop3175" /><stop
         style="stop-color:#ffffff;stop-opacity:1;"
         offset="1"
         id="stop3177" /></linearGradient><inkscape:perspective
       sodipodi:type="inkscape:persp3d"
       inkscape:vp_x="0 : 8 : 1"
       inkscape:vp_y="0 : 1000 : 0"
       inkscape:vp_z="16 : 8 : 1"
       inkscape:persp3d-origin="8 : 5.3333333 : 1"
       id="perspective2401" /><linearGradient
       inkscape:collect="always"
       xlink:href="#linearGradient3173"
       id="linearGradient3179"
       x1="7.844358"
       y1="16"
       x2="7.7198443"
       y2="-0.062256809"
       gradientUnits="userSpaceOnUse" /><linearGradient
       inkscape:collect="always"
       xlink:href="#linearGradient3839"
       id="linearGradient3845"
       x1="3.272727"
       y1="11.636364"
       x2="20"
       y2="11.636364"
       gradientUnits="userSpaceOnUse"
       gradientTransform="matrix(0,-1.2554347,1.2554347,0,1.3913046,29.608695)" /><linearGradient
       id="linearGradient3839"><stop
         style="stop-color:#c6c6c6;stop-opacity:1;"
         offset="0"
         id="stop3841" /><stop
         style="stop-color:#eaeaea;stop-opacity:1;"
         offset="1"
         id="stop3843" /></linearGradient><linearGradient
       y2="11.636364"
       x2="20"
       y1="11.636364"
       x1="3.272727"
       gradientTransform="matrix(0,-1.2554347,1.2554347,0,-6.6086954,22.608695)"
       gradientUnits="userSpaceOnUse"
       id="linearGradient3034"
       xlink:href="#linearGradient3839"
       inkscape:collect="always" /></defs><sodipodi:namedview
     inkscape:window-height="699"
     inkscape:window-width="1197"
     inkscape:pageshadow="2"
     inkscape:pageopacity="0.0"
     guidetolerance="10.0"
     gridtolerance="10.0"
     objecttolerance="10.0"
     borderopacity="1.0"
     bordercolor="#666666"
     pagecolor="#ffffff"
     id="base"
     showgrid="true"
     inkscape:zoom="1"
     inkscape:cx="1.3693993"
     inkscape:cy="4.3328147"
     inkscape:window-x="40"
     inkscape:window-y="27"
     inkscape:current-layer="Foreground"
     inkscape:window-maximized="0"><inkscape:grid
       type="xygrid"
       id="grid3053" /></sodipodi:namedview><path
     style="color:#000000;fill:url(#linearGradient3034);fill-opacity:1;stroke:none;stroke-width:2;marker:none;visibility:visible;display:inline;overflow:visible;enable-background:new"
     d="M 8 0 C 3.581722 2.3684758e-15 0 3.581722 0 8 C 0 12.418278 3.581722 16 8 16 C 12.418278 16 16 12.418278 16 8 C 16 3.581722 12.418278 -1.7763568e-15 8 0 z M 4 4 L 5 4 C 5.27371 3.96345 5.537781 4.100286 5.71875 4.28125 L 8 6.5625 L 10.28125 4.28125 C 10.462222 4.100279 10.72386 4 11 4 L 12 4 L 12 5 C 12 5.276141 11.899719 5.537786 11.71875 5.71875 L 9.4375 8 L 11.71875 10.28125 C 11.899721 10.462215 12 10.723857 12 11 L 12 12 L 11 12 C 10.72386 12 10.462222 11.899714 10.28125 11.71875 L 8 9.4375 L 5.71875 11.71875 C 5.5377809 11.899721 5.2761399 12 5 12 L 4 12 L 4 11 C 4 10.723857 4.1002789 10.462215 4.28125 10.28125 L 6.5625 8 L 4.28125 5.71875 C 4.1002789 5.537786 4 5.276141 4 5 L 4 4 z "
     id="path3032" /></svg>