<?xml version="1.0" encoding="UTF-8" standalone="no"?>
<!-- Generator: Adobe Illustrator 13.0.2, SVG Export Plug-In . SVG Version: 6.00 Build 14948)  -->

<svg
   xmlns:dc="http://purl.org/dc/elements/1.1/"
   xmlns:cc="http://creativecommons.org/ns#"
   xmlns:rdf="http://www.w3.org/1999/02/22-rdf-syntax-ns#"
   xmlns:svg="http://www.w3.org/2000/svg"
   xmlns="http://www.w3.org/2000/svg"
   xmlns:xlink="http://www.w3.org/1999/xlink"
   xmlns:sodipodi="http://sodipodi.sourceforge.net/DTD/sodipodi-0.dtd"
   xmlns:inkscape="http://www.inkscape.org/namespaces/inkscape"
   version="1.0"
   id="Foreground"
   x="0px"
   y="0px"
   width="32"
   height="32"
   viewBox="0 0 23.272727 23.272727"
   enable-background="new 0 0 16 16"
   xml:space="preserve"
   sodipodi:version="0.32"
   inkscape:version="0.48.5 r10040"
   sodipodi:docname="summary-counter.svg"
   inkscape:output_extension="org.inkscape.output.svg.inkscape"><metadata
     id="metadata2399"><rdf:RDF><cc:Work
         rdf:about=""><dc:format>image/svg+xml</dc:format><dc:type
           rdf:resource="http://purl.org/dc/dcmitype/StillImage" /><dc:title /></cc:Work></rdf:RDF></metadata><defs
     id="defs2397"><linearGradient
       id="linearGradient3940"><stop
         id="stop3942"
         offset="0"
         style="stop-color:#f6f6f6;stop-opacity:1" /><stop
         id="stop3944"
         offset="1"
         style="stop-color:#ffffff;stop-opacity:1;" /></linearGradient><linearGradient
       id="linearGradient3839"><stop
         style="stop-color:#a348b1;stop-opacity:1;"
         offset="0"
         id="stop3841" /><stop
         style="stop-color:#ce83d9;stop-opacity:1;"
         offset="1"
         id="stop3843" /></linearGradient><linearGradient
       id="linearGradient3173"><stop
         style="stop-color:#ececec;stop-opacity:1"
         offset="0"
         id="stop3175" /><stop
         style="stop-color:#ffffff;stop-opacity:1;"
         offset="1"
         id="stop3177" /></linearGradient><inkscape:perspective
       sodipodi:type="inkscape:persp3d"
       inkscape:vp_x="0 : 8 : 1"
       inkscape:vp_y="0 : 1000 : 0"
       inkscape:vp_z="16 : 8 : 1"
       inkscape:persp3d-origin="8 : 5.3333333 : 1"
       id="perspective2401" /><clipPath
       clipPathUnits="userSpaceOnUse"
       id="clipPath3811"><path
         id="path3813"
         d="M 16,4 C 9.3725829,4 4,9.3725831 4,16 4,22.627417 9.3725829,28 16,28 22.627417,28 28,22.627417 28,16 28,9.3725831 22.627417,4 16,4 z m -4,8 1,0 c 0.276141,0 0.537786,0.100278 0.71875,0.28125 L 16,14.5625 18.28125,12.28125 C 18.462214,12.100279 18.723857,12 19,12 l 1,0 0,1 c 0.03655,0.27371 -0.100292,0.537781 -0.28125,0.71875 L 17.4375,16 19.71875,18.28125 C 19.899714,18.462221 20,18.72386 20,19 l 0,1 -1,0 c -0.276143,0 -0.537786,-0.100279 -0.71875,-0.28125 L 16,17.4375 13.71875,19.71875 C 13.537786,19.899719 13.276141,20 13,20 l -1,0 0,-1 c 0,-0.27614 0.100279,-0.537779 0.28125,-0.71875 L 14.5625,16 12.28125,13.71875 C 12.100286,13.537781 12,13.27614 12,13 l 0,-1 z"
         style="color:#000000;fill:#a348b1;fill-opacity:1;stroke:none;stroke-width:2;marker:none;visibility:visible;display:inline;overflow:visible;enable-background:new"
         inkscape:connector-curvature="0" /></clipPath><linearGradient
       inkscape:collect="always"
       xlink:href="#linearGradient3173"
       id="linearGradient3876"
       x1="4"
       y1="16"
       x2="28"
       y2="16"
       gradientUnits="userSpaceOnUse" /><linearGradient
       inkscape:collect="always"
       xlink:href="#linearGradient3940"
       id="linearGradient3906"
       x1="4"
       y1="16"
       x2="28"
       y2="16"
       gradientUnits="userSpaceOnUse"
       gradientTransform="matrix(0,-0.72727272,0.72727272,0,0,22.545454)" /><filter
       inkscape:collect="always"
       id="filter3914"><feGaussianBlur
         inkscape:collect="always"
         stdDeviation="0.43636363"
         id="feGaussianBlur3916" /></filter><filter
       inkscape:collect="always"
       id="filter3924"
       x="-0.12"
       width="1.24"
       y="-0.12"
       height="1.24"><feGaussianBlur
         inkscape:collect="always"
         stdDeviation="0.87272726"
         id="feGaussianBlur3926" /></filter></defs><sodipodi:namedview
     inkscape:window-height="699"
     inkscape:window-width="1364"
     inkscape:pageshadow="2"
     inkscape:pageopacity="0"
     guidetolerance="10.0"
     gridtolerance="10.0"
     objecttolerance="10.0"
     borderopacity="1.0"
     bordercolor="#666666"
     pagecolor="#000000"
     id="base"
     showgrid="false"
     inkscape:zoom="5.6568542"
     inkscape:cx="31.111259"
     inkscape:cy="15.811452"
     inkscape:window-x="0"
     inkscape:window-y="27"
     inkscape:current-layer="Foreground"
     showguides="true"
     inkscape:guide-bbox="true"
     borderlayer="true"
     inkscape:showpageshadow="false"
     inkscape:window-maximized="0"
     inkscape:snap-bbox="true"
     inkscape:bbox-nodes="true"
     inkscape:bbox-paths="true"
     inkscape:snap-bbox-edge-midpoints="true"
     inkscape:snap-bbox-midpoints="true"><inkscape:grid
       type="xygrid"
       id="grid11246"
       empspacing="5"
       visible="true"
       enabled="true"
       snapvisiblegridlinesonly="true" /></sodipodi:namedview><path
     style="opacity:0.6;color:#000000;fill:#000000;fill-opacity:1;fill-rule:nonzero;stroke:none;stroke-width:2;marker:none;visibility:visible;display:inline;overflow:visible;filter:url(#filter3924);enable-background:new"
     d="m 2.9090909,11.636364 c 0,4.81994 3.9073336,8.727272 8.7272731,8.727272 4.819941,0 8.727272,-3.907332 8.727272,-8.727272 0,-4.8199387 -3.907331,-8.7272732 -8.727272,-8.7272732 -4.8199395,0 -8.7272731,3.9073345 -8.7272731,8.7272732 z m 1.4545454,0 c 0,-4.0166165 3.2561105,-7.2727278 7.2727277,-7.2727278 4.016615,0 7.272727,3.2561113 7.272727,7.2727278 0,4.016617 -3.256112,7.272727 -7.272727,7.272727 -4.0166172,0 -7.2727277,-3.25611 -7.2727277,-7.272727 z m 4.3636363,2.90909 0.7272728,0 c 0.200829,0 0.3911134,-0.07293 0.5227272,-0.204545 l 1.6590914,-1.659091 1.65909,1.659091 c 0.131616,0.13161 0.321899,0.204545 0.522728,0.204545 l 0.727272,0 0,-0.727272 c 0,-0.200831 -0.07293,-0.391117 -0.204545,-0.522728 l -1.659091,-1.65909 1.659091,-1.6590919 c 0.131614,-0.13161 0.204545,-0.321897 0.204545,-0.522727 l 0,-0.7272726 -0.727272,0 c -0.200829,0 -0.391112,0.07293 -0.522728,0.2045455 L 11.636364,10.590909 9.9772726,8.931818 C 9.8456588,8.8002078 9.6536072,8.7006893 9.4545454,8.7272725 l -0.7272728,0 0,0.7272726 c 0,0.20083 0.07293,0.391117 0.2045455,0.522727 l 1.6590909,1.6590919 -1.6590909,1.65909 c -0.1316153,0.131611 -0.2045455,0.321897 -0.2045455,0.522728 l 0,0.727272 z"
     id="path3918"
     inkscape:connector-curvature="0" /><path
     inkscape:connector-curvature="0"
     id="path3908"
     d="m 2.9090909,11.636364 c 0,4.81994 3.9073336,8.727272 8.7272731,8.727272 4.819941,0 8.727272,-3.907332 8.727272,-8.727272 0,-4.8199387 -3.907331,-8.7272732 -8.727272,-8.7272732 -4.8199395,0 -8.7272731,3.9073345 -8.7272731,8.7272732 z m 1.4545454,0 c 0,-4.0166165 3.2561105,-7.2727278 7.2727277,-7.2727278 4.016615,0 7.272727,3.2561113 7.272727,7.2727278 0,4.016617 -3.256112,7.272727 -7.272727,7.272727 -4.0166172,0 -7.2727277,-3.25611 -7.2727277,-7.272727 z m 4.3636363,2.90909 0.7272728,0 c 0.200829,0 0.3911134,-0.07293 0.5227272,-0.204545 l 1.6590914,-1.659091 1.65909,1.659091 c 0.131616,0.13161 0.321899,0.204545 0.522728,0.204545 l 0.727272,0 0,-0.727272 c 0,-0.200831 -0.07293,-0.391117 -0.204545,-0.522728 l -1.659091,-1.65909 1.659091,-1.6590919 c 0.131614,-0.13161 0.204545,-0.321897 0.204545,-0.522727 l 0,-0.7272726 -0.727272,0 c -0.200829,0 -0.391112,0.07293 -0.522728,0.2045455 L 11.636364,10.590909 9.9772726,8.931818 C 9.8456588,8.8002078 9.6536072,8.7006893 9.4545454,8.7272725 l -0.7272728,0 0,0.7272726 c 0,0.20083 0.07293,0.391117 0.2045455,0.522727 l 1.6590909,1.6590919 -1.6590909,1.65909 c -0.1316153,0.131611 -0.2045455,0.321897 -0.2045455,0.522728 l 0,0.727272 z"
     style="opacity:0.6;color:#000000;fill:#000000;fill-opacity:1;fill-rule:nonzero;stroke:none;stroke-width:2;marker:none;visibility:visible;display:inline;overflow:visible;filter:url(#filter3914);enable-background:new" /><path
     style="color:#000000;fill:#97a7ab;fill-opacity:1;stroke:none;stroke-width:2;marker:none;visibility:visible;display:inline;overflow:visible;enable-background:new"
     d="m 4,10.90909 c 0,4.217449 3.4189163,7.636364 7.636364,7.636364 4.217447,0 7.636363,-3.418915 7.636363,-7.636364 0,-4.2174461 -3.418916,-7.6363629 -7.636363,-7.6363629 C 7.4189163,3.2727271 4,6.6916439 4,10.90909 z"
     id="path3032"
     inkscape:connector-curvature="0"
     sodipodi:nodetypes="sssss" /><path
     style="color:#000000;fill:url(#linearGradient3906);fill-opacity:1;fill-rule:nonzero;stroke:none;stroke-width:2;marker:none;visibility:visible;display:inline;overflow:visible;enable-background:new"
     d="m 2.9090909,10.909091 c 0,4.81994 3.9073336,8.727272 8.7272731,8.727272 4.819941,0 8.727272,-3.907332 8.727272,-8.727272 0,-4.8199385 -3.907331,-8.727273 -8.727272,-8.727273 -4.8199395,0 -8.7272731,3.9073345 -8.7272731,8.727273 z m 1.4545454,0 c 0,-4.0166163 3.2561105,-7.2727276 7.2727277,-7.2727276 4.016615,0 7.272727,3.2561113 7.272727,7.2727276 0,4.016617 -3.256112,7.272727 -7.272727,7.272727 -4.0166172,0 -7.2727277,-3.25611 -7.2727277,-7.272727 z"
     id="path5757"
     inkscape:connector-curvature="0"
     sodipodi:nodetypes="ssssssssss" /><path
     sodipodi:nodetypes="sscscss"
     inkscape:connector-curvature="0"
     id="path3938"
     d="m 11.636364,3.6363634 c -4.0166179,0 -7.2727277,3.2561105 -7.2727277,7.2727276 0,0.121729 0.016815,0.243373 0.022727,0.363636 0.1891585,-3.8479651 3.355112,-6.9090909 7.2500007,-6.9090909 3.894885,0 7.060841,3.0611258 7.249999,6.9090909 0.0059,-0.120263 0.02273,-0.241907 0.02273,-0.363636 0,-4.0166171 -3.256112,-7.2727276 -7.272729,-7.2727276 z"
     style="opacity:0.5;color:#000000;fill:#ffffff;fill-opacity:1;fill-rule:nonzero;stroke:none;stroke-width:2;marker:none;visibility:visible;display:inline;overflow:visible;enable-background:new" /><path
     style="opacity:0.5;color:#000000;fill:#000000;fill-opacity:1;fill-rule:nonzero;stroke:none;stroke-width:2;marker:none;visibility:visible;display:inline;overflow:visible;enable-background:new"
     d="m 11.636364,3.6363634 c -4.0166179,0 -7.2727277,3.2561105 -7.2727277,7.2727276 0,0.121729 0.016815,0.243373 0.022727,0.363636 0.1891585,-3.8479651 3.355112,-6.9090909 7.2500007,-6.9090909 3.894885,0 7.060841,3.0611258 7.249999,6.9090909 0.0059,-0.120263 0.02273,-0.241907 0.02273,-0.363636 0,-4.0166171 -3.256112,-7.2727276 -7.272729,-7.2727276 z"
     id="path3930"
     inkscape:connector-curvature="0"
     sodipodi:nodetypes="sscscss" /></svg>