/* XPM */
static char *title_4_active[] = {
/* columns rows colors chars-per-pixel */
"2 26 52 1 ",
"  c #63636E6E7373",
". c #63636E6E7373",
"X c #63636E6E7373",
"o c #63636E6E7373",
"O c #63636E6E7373",
"+ c #63636E6E7373",
"@ c #63636E6E7373",
"# c #63636E6E7373",
"$ c #63636E6E7373",
"% c #63636E6E7373",
"& c #63636E6E7373",
"* c #63636E6E7373",
"= c #63636E6E7373",
"- c #63636E6E7373",
"; c #63636E6E7373",
": c #63636E6E7373",
"> c #63636E6E7373",
", c #63636E6E7373",
"< c #63636E6E7373",
"1 c #63636E6E7373",
"2 c #63636E6E7373",
"3 c #63636E6E7373",
"4 c #63636E6E7373",
"5 c #63636E6E7373",
"6 c #63636E6E7373",
"7 c #63636E6E7373",
"8 c #63636E6E7373",
"9 c #63636E6E7373",
"0 c #63636E6E7373",
"q c #63636E6E7373",
"w c #63636E6E7373",
"e c #63636E6E7373",
"r c #63636E6E7373",
"t c #63636E6E7373",
"y c #63636E6E7373",
"u c #63636E6E7373",
"i c #63636E6E7373",
"p c #63636E6E7373",
"a c #63636E6E7373",
"s c #63636E6E7373",
"d c #63636E6E7373",
"f c #63636E6E7373",
"g c #63636E6E7373",
"h c #63636E6E7373",
"j c #63636E6E7373",
"k c #63636E6E7373",
"l c #63636E6E7373",
"z c #63636E6E7373",
"x c #63636E6E7373",
"c c #63636E6E7373",
"v c #63636E6E7373",
"b c #63636E6E7373",
/* pixels */
" .",
"Xo",
"O+",
"@#",
"$%",
"&*",
"=-",
";:",
">,",
"<1",
"23",
"45",
"67",
"89",
"0q",
"we",
"rt",
"yu",
"ip",
"as",
"df",
"gh",
"jk",
"lz",
"xc",
"vb"
};
