/* XPM */
static char *top_right_inactive[] = {
/* columns rows colors chars-per-pixel */
"5 26 130 2 ",
"   c #63636E6E7373",
".  c #63636E6E7373",
"X  c #63636E6E7373",
"o  c #63636E6E7373",
"O  c #63636E6E7373",
"+  c #63636E6E7373",
"@  c #63636E6E7373",
"#  c #63636E6E7373",
"$  c #63636E6E7373",
"%  c #63636E6E7373",
"&  c #63636E6E7373",
"*  c #63636E6E7373",
"=  c #63636E6E7373",
"-  c #63636E6E7373",
";  c #63636E6E7373",
":  c #63636E6E7373",
">  c #63636E6E7373",
",  c #63636E6E7373",
"<  c #63636E6E7373",
"1  c #63636E6E7373",
"2  c #63636E6E7373",
"3  c #63636E6E7373",
"4  c #63636E6E7373",
"5  c #63636E6E7373",
"6  c #63636E6E7373",
"7  c #63636E6E7373",
"8  c #63636E6E7373",
"9  c #63636E6E7373",
"0  c #63636E6E7373",
"q  c #63636E6E7373",
"w  c #63636E6E7373",
"e  c #63636E6E7373",
"r  c #63636E6E7373",
"t  c #63636E6E7373",
"y  c #63636E6E7373",
"u  c #63636E6E7373",
"i  c #63636E6E7373",
"p  c #63636E6E7373",
"a  c #63636E6E7373",
"s  c #63636E6E7373",
"d  c #63636E6E7373",
"f  c #63636E6E7373",
"g  c #63636E6E7373",
"h  c #63636E6E7373",
"j  c #63636E6E7373",
"k  c #63636E6E7373",
"l  c #63636E6E7373",
"z  c #63636E6E7373",
"x  c #63636E6E7373",
"c  c #63636E6E7373",
"v  c #63636E6E7373",
"b  c #63636E6E7373",
"n  c #63636E6E7373",
"m  c #63636E6E7373",
"M  c #63636E6E7373",
"N  c #63636E6E7373",
"B  c #63636E6E7373",
"V  c #63636E6E7373",
"C  c #63636E6E7373",
"Z  c #63636E6E7373",
"A  c #63636E6E7373",
"S  c #63636E6E7373",
"D  c #63636E6E7373",
"F  c #63636E6E7373",
"G  c #63636E6E7373",
"H  c #63636E6E7373",
"J  c #63636E6E7373",
"K  c #63636E6E7373",
"L  c #63636E6E7373",
"P  c #63636E6E7373",
"I  c #63636E6E7373",
"U  c #63636E6E7373",
"Y  c #63636E6E7373",
"T  c #63636E6E7373",
"R  c #63636E6E7373",
"E  c #63636E6E7373",
"W  c #63636E6E7373",
"Q  c #63636E6E7373",
"!  c #63636E6E7373",
"~  c #63636E6E7373",
"^  c #63636E6E7373",
"/  c #63636E6E7373",
"(  c #63636E6E7373",
")  c #63636E6E7373",
"_  c #63636E6E7373",
"`  c #63636E6E7373",
"'  c #63636E6E7373",
"]  c #63636E6E7373",
"[  c #63636E6E7373",
"{  c #63636E6E7373",
"}  c #63636E6E7373",
"|  c #63636E6E7373",
" . c #63636E6E7373",
".. c #63636E6E7373",
"X. c #63636E6E7373",
"o. c #63636E6E7373",
"O. c #63636E6E7373",
"+. c #63636E6E7373",
"@. c #63636E6E7373",
"#. c #63636E6E7373",
"$. c #63636E6E7373",
"%. c #63636E6E7373",
"&. c #63636E6E7373",
"*. c #63636E6E7373",
"=. c #63636E6E7373",
"-. c #63636E6E7373",
";. c #63636E6E7373",
":. c #63636E6E7373",
">. c #63636E6E7373",
",. c #63636E6E7373",
"<. c #63636E6E7373",
"1. c #63636E6E7373",
"2. c #63636E6E7373",
"3. c #63636E6E7373",
"4. c #63636E6E7373",
"5. c #63636E6E7373",
"6. c #63636E6E7373",
"7. c #63636E6E7373",
"8. c #63636E6E7373",
"9. c #63636E6E7373",
"0. c #63636E6E7373",
"q. c #63636E6E7373",
"w. c #63636E6E7373",
"e. c #63636E6E7373",
"r. c #63636E6E7373",
"t. c #63636E6E7373",
"y. c #63636E6E7373",
"u. c #63636E6E7373",
"i. c #63636E6E7373",
"p. c #63636E6E7373",
/* pixels */
"  . X o O ",
"+ @ # $ % ",
"& * = - ; ",
": > , < 1 ",
"2 3 4 5 6 ",
"7 8 9 0 q ",
"w e r t y ",
"u i p a s ",
"d f g h j ",
"k l z x c ",
"v b n m M ",
"N B V C Z ",
"A S D F G ",
"H J K L P ",
"I U Y T R ",
"E W Q ! ~ ",
"^ / ( ) _ ",
"` ' ] [ { ",
"} |  ...X.",
"o.O.+.@.#.",
"$.%.&.*.=.",
"-.;.:.>.,.",
"<.1.2.3.4.",
"5.6.7.8.9.",
"0.q.w.e.r.",
"t.y.u.i.p."
};
